<svg width="256" height="247" viewBox="0 0 256 247" fill="none" xmlns="http://www.w3.org/2000/svg">
  <path
    d="M132.394 0H179.658C104.124 70.7845 61.6336 111.424 45.008 128.061C36.3399 136.25 29.3645 146.083 24.4826 156.995C19.816 167.204 17.1336 178.218 16.5803 189.442C5.27484 176.738 -0.654214 160.088 0.0573863 143.045C2.76388 127.185 11.1643 112.879 23.6616 102.848C53.5261 74.3271 81.3889 47.3275 132.394 0Z"
    fill="#4680FE" />
  <path
    d="M204.865 0.000793171L252.128 0L92.421 153.792C88.0423 157.512 83.5267 161.749 78.8742 166.502C76.5138 168.775 74.4613 171.152 72.4088 173.425C70.4419 175.159 68.8794 177.308 67.8327 179.719C66.786 182.131 66.281 184.745 66.3538 187.376C66.5461 189.416 67.1764 191.391 68.201 193.162L76.2059 202.049C89.6501 216.929 104.488 232.223 117.933 247H71.8956L54.1411 230.156C41.5638 220.109 33.2386 205.634 30.8448 189.649C28.3818 157.925 60.6066 134.261 95.8077 102.848C125.159 77.0138 153.962 50.8416 204.865 0.000793171Z"
    fill="#4680FE" />
  <path d="M106.427 163.709L81.7478 185.826L137.885 247H187.146L106.427 163.709Z" fill="#4680FE" />
  <path d="M143.82 129.244L117.933 153.792L207.101 247H256L143.82 129.244Z" fill="#4680FE" />
</svg>