<svg width="250" height="59" viewBox="0 0 250 59" fill="none" xmlns="http://www.w3.org/2000/svg">
<path d="M33.1497 0L43.7282 0.117436C26.541 16.2062 14.0243 28.1847 10.2413 31.9662C8.2689 33.8274 6.68169 36.0624 5.57085 38.5426C4.50899 40.863 3.89863 43.3664 3.77274 45.9176C1.20025 43.0299 -0.148862 39.2457 0.0130579 35.3718C0.628902 31.7669 2.54037 28.5153 5.38404 26.2353C12.1795 19.7528 21.5437 10.7572 33.1497 0Z" fill="#67A8FF"/>
<path d="M49.6598 0L60.2383 0.117436L21.0302 37.8145C20.0338 38.66 19.0064 39.623 17.9477 40.7034C17.4106 41.2201 16.9436 41.7603 16.4765 42.2771C16.029 42.671 15.6735 43.1595 15.4353 43.7076C15.1971 44.2557 15.0822 44.8499 15.0988 45.4478C15.1425 45.9117 15.286 46.3605 15.5191 46.7631L17.3406 48.783C20.3997 52.1652 23.4822 55.5239 26.5413 58.8826L16.3598 59L12.3199 55.1716C9.45799 52.888 7.56365 49.5978 7.01895 45.9646C6.4585 38.754 13.7911 33.3754 21.8008 26.2353C28.4795 20.3635 38.0772 11.5557 49.6598 0Z" fill="#67A8FF"/>
<path d="M24.136 39.529L18.6015 45.0955L31.3751 59H42.5841L24.136 39.529Z" fill="#67A8FF"/>
<path d="M33.6403 30.8623L27.2418 37.3682L46.9743 58.7182H60.215L33.6403 30.8623Z" fill="#67A8FF"/>
<path d="M91.1419 47.66L77.8304 31.4394V47.66H70.4934V11.255H77.8304V27.5799L91.1419 11.255H99.9987L84.9054 29.301L100.418 47.66H91.1419Z" fill="white"/>
<path d="M123.062 47.66L114.992 33.4735H111.533V47.66H104.196V11.255H117.927C120.757 11.255 123.167 11.7591 125.159 12.7675C127.15 13.7411 128.635 15.0798 129.613 16.7835C130.627 18.4525 131.133 20.3301 131.133 22.4164C131.133 24.8156 130.434 26.9888 129.037 28.9359C127.639 30.8483 125.561 32.1696 122.8 32.8998L131.552 47.66H123.062ZM111.533 27.9971H117.665C119.656 27.9971 121.141 27.5277 122.119 26.5889C123.097 25.6153 123.587 24.2766 123.587 22.5729C123.587 20.9039 123.097 19.6173 122.119 18.7133C121.141 17.7745 119.656 17.3051 117.665 17.3051H111.533V27.9971Z" fill="white"/>
<path d="M153.701 48.0251C150.277 48.0251 147.133 47.2254 144.268 45.6259C141.403 44.0265 139.132 41.8185 137.455 39.0021C135.778 36.1509 134.939 32.9346 134.939 29.3532C134.939 25.8066 135.778 22.625 137.455 19.8086C139.132 16.9574 141.403 14.732 144.268 13.1326C147.133 11.5331 150.277 10.7334 153.701 10.7334C157.16 10.7334 160.304 11.5331 163.134 13.1326C165.999 14.732 168.253 16.9574 169.895 19.8086C171.572 22.625 172.411 25.8066 172.411 29.3532C172.411 32.9346 171.572 36.1509 169.895 39.0021C168.253 41.8185 165.999 44.0265 163.134 45.6259C160.269 47.2254 157.125 48.0251 153.701 48.0251ZM153.701 41.5056C155.902 41.5056 157.841 41.0188 159.518 40.0452C161.195 39.0369 162.506 37.6113 163.449 35.7684C164.392 33.9256 164.864 31.7871 164.864 29.3532C164.864 26.9192 164.392 24.7982 163.449 22.9901C162.506 21.1473 161.195 19.739 159.518 18.7655C157.841 17.7919 155.902 17.3051 153.701 17.3051C151.5 17.3051 149.543 17.7919 147.831 18.7655C146.154 19.739 144.844 21.1473 143.901 22.9901C142.958 24.7982 142.486 26.9192 142.486 29.3532C142.486 31.7871 142.958 33.9256 143.901 35.7684C144.844 37.6113 146.154 39.0369 147.831 40.0452C149.543 41.0188 151.5 41.5056 153.701 41.5056Z" fill="white"/>
<path d="M208.108 47.66H200.771L184.158 22.6772V47.66H176.821V11.2028H184.158L200.771 36.2378V11.2028H208.108V47.66Z" fill="white"/>
<path d="M231.291 48.0251C227.867 48.0251 224.722 47.2254 221.857 45.6259C218.992 44.0265 216.721 41.8185 215.044 39.0021C213.367 36.1509 212.529 32.9346 212.529 29.3532C212.529 25.8066 213.367 22.625 215.044 19.8086C216.721 16.9574 218.992 14.732 221.857 13.1326C224.722 11.5331 227.867 10.7334 231.291 10.7334C234.749 10.7334 237.894 11.5331 240.724 13.1326C243.589 14.732 245.842 16.9574 247.484 19.8086C249.161 22.625 250 25.8066 250 29.3532C250 32.9346 249.161 36.1509 247.484 39.0021C245.842 41.8185 243.589 44.0265 240.724 45.6259C237.859 47.2254 234.715 48.0251 231.291 48.0251ZM231.291 41.5056C233.492 41.5056 235.431 41.0188 237.108 40.0452C238.785 39.0369 240.095 37.6113 241.038 35.7684C241.982 33.9256 242.453 31.7871 242.453 29.3532C242.453 26.9192 241.982 24.7982 241.038 22.9901C240.095 21.1473 238.785 19.739 237.108 18.7655C235.431 17.7919 233.492 17.3051 231.291 17.3051C229.089 17.3051 227.133 17.7919 225.421 18.7655C223.744 19.739 222.434 21.1473 221.49 22.9901C220.547 24.7982 220.075 26.9192 220.075 29.3532C220.075 31.7871 220.547 33.9256 221.49 35.7684C222.434 37.6113 223.744 39.0369 225.421 40.0452C227.133 41.0188 229.089 41.5056 231.291 41.5056Z" fill="white"/>
</svg>
